# xmcd
#
# Track frame offsets: 
#        150
#        13675
#        26505
#        38472
#        50140
#        61207
#        73967
#        87865
#        99817
#        113440
#
# Disc length: 1704 seconds
#
# Revision: 1
# Processed by: cddbd v1.5.1PL0 Copyright (c) Steve Scherf et al.
# Submitted via: ExactAudioCopy v0.95a5
#
DISCID=7406a60a
DTITLE=Gary Stewart - Out of Hand
DYEAR=1991
DGENRE=Country
TTITLE0=Drinkin' Thing
TTITLE1=Honky-Tonkin'
TTITLE2=I See The Want To In Your Eyes
TTITLE3=This Old Heart Won't Let Go
TTITLE4=Draggin' Shackles
TTITLE5=She's Actin' Single (I'm Drinkin' Doubles)
TTITLE6=Back Sliders Wine
TTITLE7=Sweet Country Red
TTITLE8=Out Of Hand
TTITLE9=Williamson County
EXTD=
EXTT0=
EXTT1=
EXTT2=
EXTT3=
EXTT4=
EXTT5=
EXTT6=
EXTT7=
EXTT8=
EXTT9=
PLAYORDER=
